<svg xmlns="http://www.w3.org/2000/svg" width="1400" height="820" viewBox="0 0 1400 820" role="img" aria-label="Inbox spam detector illustration">
  <defs>
    <linearGradient id="bg" x1="0" x2="1" y1="0" y2="1">
      <stop offset="0" stop-color="#eaf8f7"/>
      <stop offset="1" stop-color="#d7e9ff"/>
    </linearGradient>
    <linearGradient id="panel" x1="0" x2="0" y1="0" y2="1">
      <stop offset="0" stop-color="#ffffff"/>
      <stop offset="1" stop-color="#f3fbff"/>
    </linearGradient>
  </defs>

  <rect width="1400" height="820" fill="url(#bg)"/>

  <rect x="90" y="80" width="1220" height="660" rx="36" fill="url(#panel)" stroke="#c8deef" stroke-width="4"/>

  <rect x="140" y="130" width="1120" height="64" rx="14" fill="#e3f2ff"/>
  <circle cx="180" cy="162" r="10" fill="#93b8d6"/>
  <rect x="210" y="148" width="320" height="28" rx="12" fill="#c0d9ef"/>

  <rect x="140" y="230" width="760" height="450" rx="22" fill="#f8fdff" stroke="#d5e8f5" stroke-width="3"/>

  <rect x="176" y="270" width="688" height="76" rx="14" fill="#ebf8f8"/>
  <circle cx="214" cy="308" r="10" fill="#1da98f"/>
  <rect x="242" y="292" width="250" height="14" rx="7" fill="#76a4bf"/>
  <rect x="242" y="314" width="370" height="12" rx="6" fill="#acc9dc"/>
  <rect x="730" y="286" width="118" height="40" rx="20" fill="#19a471"/>
  <text x="789" y="312" font-family="Segoe UI, Arial, sans-serif" font-size="20" text-anchor="middle" fill="#ffffff">Not Spam</text>

  <rect x="176" y="366" width="688" height="76" rx="14" fill="#fff3f3"/>
  <circle cx="214" cy="404" r="10" fill="#e05757"/>
  <rect x="242" y="388" width="290" height="14" rx="7" fill="#b48585"/>
  <rect x="242" y="410" width="340" height="12" rx="6" fill="#d0abab"/>
  <rect x="730" y="382" width="118" height="40" rx="20" fill="#df5d5d"/>
  <text x="789" y="408" font-family="Segoe UI, Arial, sans-serif" font-size="20" text-anchor="middle" fill="#ffffff">Spam</text>

  <rect x="176" y="462" width="688" height="76" rx="14" fill="#ebf8f8"/>
  <circle cx="214" cy="500" r="10" fill="#1da98f"/>
  <rect x="242" y="484" width="300" height="14" rx="7" fill="#76a4bf"/>
  <rect x="242" y="506" width="380" height="12" rx="6" fill="#acc9dc"/>
  <rect x="730" y="478" width="118" height="40" rx="20" fill="#19a471"/>
  <text x="789" y="504" font-family="Segoe UI, Arial, sans-serif" font-size="20" text-anchor="middle" fill="#ffffff">Not Spam</text>

  <rect x="940" y="230" width="320" height="450" rx="22" fill="#ffffff" stroke="#d5e8f5" stroke-width="3"/>
  <text x="980" y="280" font-family="Segoe UI, Arial, sans-serif" font-size="34" font-weight="700" fill="#1f4455">Inbox Summary</text>

  <rect x="980" y="320" width="240" height="58" rx="14" fill="#e9faf1"/>
  <text x="1006" y="357" font-family="Segoe UI, Arial, sans-serif" font-size="24" fill="#117d5c">Not Spam: 18</text>

  <rect x="980" y="396" width="240" height="58" rx="14" fill="#fff1f1"/>
  <text x="1006" y="433" font-family="Segoe UI, Arial, sans-serif" font-size="24" fill="#b64444">Spam: 4</text>

  <rect x="980" y="472" width="240" height="148" rx="14" fill="#eef6ff"/>
  <text x="1006" y="510" font-family="Segoe UI, Arial, sans-serif" font-size="22" fill="#3f6078">Keywords</text>
  <text x="1006" y="544" font-family="Segoe UI, Arial, sans-serif" font-size="20" fill="#4f7288">- internship</text>
  <text x="1006" y="574" font-family="Segoe UI, Arial, sans-serif" font-size="20" fill="#4f7288">- invoice</text>
  <text x="1006" y="604" font-family="Segoe UI, Arial, sans-serif" font-size="20" fill="#4f7288">- project alpha</text>
</svg>
